<?xml version="1.0" encoding="utf-8"?>
<!-- Generator: Adobe Illustrator 22.0.0, SVG Export Plug-In . SVG Version: 6.00 Build 0)  -->
<svg version="1.1" id="Calque_1" xmlns="http://www.w3.org/2000/svg" xmlns:xlink="http://www.w3.org/1999/xlink" x="0px" y="0px"
	 viewBox="0 0 1080 1080" style="enable-background:new 0 0 1080 1080;" xml:space="preserve">
<style type="text/css">
	.st0{fill:#557EBF;}
	.st1{fill:#36A852;}
	.st2{fill:#F9BC15;}
	.st3{fill:#EA4535;}
</style>
<g transform="matrix(1, 0, 0, 1, 27.009001, -39.238998)">
	<path class="st0" d="M981.8,590c0-31.5-2.8-61.5-7.6-90.6H523.2v180h258.3c-11.6,59.1-45.5,109-95.8,142.9v119.8h154.1
		C929.9,858.7,981.8,735.7,981.8,590z"/>
	<path class="st1" d="M523.2,1058.2c129.3,0,237.5-43.1,316.5-116.2L685.6,822.3c-43.1,28.7-97.8,46.3-162.5,46.3
		c-124.9,0-230.7-84.2-268.6-198H95.7V794C174.3,950.5,336,1058.2,523.2,1058.2z"/>
	<path class="st2" d="M254.5,670.6c-10-28.7-15.2-59.5-15.2-91.4c0-31.9,5.6-62.7,15.2-91.4V364.5H95.7
		c-32.7,64.7-51.5,137.3-51.5,214.8c0,77.4,18.8,150.1,51.5,214.8L254.5,670.6z"/>
	<path class="st3" d="M523.2,289.8c70.7,0,133.7,24.3,183.6,71.9l136.5-136.5c-82.6-77.4-190.8-124.9-320.1-124.9
		C336,100.2,174.3,208,95.7,364.5l158.9,123.3C292.5,374.1,398.2,289.8,523.2,289.8z"/>
</g>
</svg>
